<svg width="693" height="567" viewBox="0 0 693 567" fill="none" xmlns="http://www.w3.org/2000/svg">
<g clip-path="url(#clip0_64_397)">
<path d="M664.537 549.067L678.027 556.495C679.455 557.285 680.328 559.087 679.885 560.792C679.538 562.136 678.387 563.175 675.379 563.231C668.71 563.369 639.193 558.449 639.193 558.449V562.247L625.397 562.274C625.397 562.274 624.538 542.706 628.711 540.156L664.537 549.067Z" fill="#262722"/>
<path d="M646.457 536.955L664.537 549.067C664.537 549.067 662.207 555.733 651.906 551.285C641.605 546.836 628.711 540.142 628.711 540.142L630.596 535.07L646.457 536.955Z" fill="#E8AF94"/>
<path d="M630.583 535.07L628.711 478.901L646.624 480.079V542.775L630.583 535.07Z" fill="#E8AF94"/>
<path d="M511.085 549.067L497.595 556.495C496.167 557.285 495.293 559.087 495.737 560.792C496.084 562.136 497.234 563.175 500.243 563.231C506.912 563.369 536.429 558.449 536.429 558.449V562.413L550.03 562.247C550.03 562.247 551.084 542.72 546.911 540.156L511.085 549.067Z" fill="#262722"/>
<path d="M529.164 536.955L511.085 549.067C511.085 549.067 513.414 555.733 523.715 551.285C534.017 546.836 546.911 540.142 546.911 540.142L545.025 535.07L529.164 536.955Z" fill="#E8AF94"/>
<path d="M545.039 535.07L559.181 478.901L541.268 480.079L527.445 544.064L545.039 535.07Z" fill="#E8AF94"/>
<path d="M636.863 224.732C636.863 224.732 661.32 259.767 660.669 298.059C660.003 336.364 652.003 518.051 652.003 518.051H622.888L613.668 280.624L609.828 280.389L557.226 518.134L530.052 515.252L561.635 300.262C563.798 286.445 567.5 272.905 572.879 260.003C577.482 248.971 583.79 236.415 591.665 226.686L636.863 224.732Z" fill="#1558C1"/>
<path d="M601.148 282.426L619.768 279.183" stroke="black" stroke-width="0.9147" stroke-miterlimit="10" stroke-linecap="round" stroke-linejoin="round"/>
<path d="M586.369 247.779L577.399 273.612" stroke="#FEA609" stroke-width="0.9519" stroke-miterlimit="10" stroke-linecap="round" stroke-linejoin="round"/>
<path d="M572.726 77.3315C572.726 77.3315 570.688 97.7314 547.534 114.14C522.842 131.644 541.24 180.08 586.577 177.821C635.823 175.368 656.259 112.131 624.122 64.0964L572.726 77.3315Z" fill="#A74B22"/>
<path d="M607.262 137.506L577.412 145.89C568.802 148.316 561.898 157.448 564.505 165.999L591.374 226.783L636.849 224.719L652.835 158.862C654.207 149.909 644.918 141.788 635.92 140.763L607.262 137.506Z" fill="#881630"/>
<path d="M577.426 145.89L607.262 137.506L635.934 140.777L635.338 141.275C618.992 154.968 595.741 156.825 577.426 145.89Z" fill="#E0A78F"/>
<path d="M674.283 218.953L640.301 249.096L646.249 259.351L685.485 235.445C691.835 231.398 694.733 223.388 691.905 216.417C691.766 216.071 691.614 215.738 691.447 215.392L686.9 205.912L674.283 218.953Z" fill="#E0A78F"/>
<path d="M663.815 159.361L692.085 207.7C693.471 211.165 691.641 215.073 688.106 216.237L674.477 220.755C672.398 221.448 670.11 220.88 668.613 219.286C663.594 213.95 641.563 197.154 642.256 176.629L634.423 162.604L635.934 140.763C650.547 142.523 661.098 152.709 663.815 159.361Z" fill="#881630"/>
<path d="M645.334 191.097L651.656 170.323" stroke="black" stroke-width="0.865" stroke-miterlimit="10" stroke-linecap="round" stroke-linejoin="round"/>
<path d="M651.656 250.565C650.908 251.23 646.471 270.965 646.471 270.965L640.301 249.096L651.656 250.565Z" fill="#E0A78F"/>
<path d="M639.525 246.56L647.261 273.737" stroke="#FEA609" stroke-width="0.9519" stroke-miterlimit="10" stroke-linecap="round" stroke-linejoin="round"/>
<path d="M554.342 165.653L531.798 216.902C530.828 220.492 533.074 224.164 536.72 224.926L547.354 227.324C549.503 227.767 550.82 232.867 552.137 231.107C556.505 225.231 580.781 200.632 577.731 180.329L583.901 165.5L577.412 145.876C563.104 149.313 556.283 158.723 554.342 165.653Z" fill="#881630"/>
<path d="M576.331 195.061L567.679 175.146" stroke="black" stroke-width="0.865" stroke-miterlimit="10" stroke-linecap="round" stroke-linejoin="round"/>
<path d="M501.99 161.897L491.397 166.235L534.072 227.255C537.455 234.045 546.273 235.93 552.124 231.107C556.99 227.102 557.85 219.979 554.065 214.934L501.99 161.897Z" fill="#E0A78F"/>
<path d="M502.475 164.974L504.624 161.772C506.204 159.416 506.884 156.589 506.537 153.776L505.58 145.946C505.58 145.946 505.151 141.802 497.317 144.56C489.484 147.318 489.026 147.47 489.636 149.84C489.636 149.84 491.827 152.834 497.165 152.39L502.475 164.974Z" fill="#E0A78F"/>
<path d="M492.534 168.355C492.534 168.355 483.633 165.667 480.251 151.836C479.862 150.242 480.334 148.551 481.471 147.373C483.245 145.572 488.444 140.873 492.105 142.37L499.245 148.357L502.461 164.96L492.534 168.355Z" fill="#E0A78F"/>
<path d="M499.882 145.683L499.466 122.317C499.439 120.931 498.302 119.808 496.915 119.808C495.529 119.808 494.392 120.931 494.378 122.317L494.129 140.111L492.326 140.874L482.122 125.13C481.401 124.021 479.904 123.744 478.836 124.506C477.893 125.172 477.588 126.433 478.115 127.458L489.637 149.826L499.882 145.683Z" fill="#E0A78F"/>
<path d="M499.855 143.839C499.855 143.839 488.708 145.156 489.623 149.84C489.623 149.84 490.136 153.374 497.151 152.39C497.151 152.39 493.117 154.524 493.976 159.375" stroke="#B9635E" stroke-width="0.6407" stroke-miterlimit="10" stroke-linecap="round" stroke-linejoin="round"/>
<path d="M586.002 106.157C588.852 102.643 588.313 97.4856 584.798 94.6367C581.283 91.7878 576.123 92.3265 573.273 95.8399C570.423 99.3533 570.962 104.511 574.477 107.36C577.992 110.209 583.152 109.67 586.002 106.157Z" fill="#E0A78F"/>
<path d="M574.917 100.226C574.917 100.226 578.036 98.3689 581.6 103.746" stroke="#B9635E" stroke-width="0.6612" stroke-miterlimit="10" stroke-linecap="round" stroke-linejoin="round"/>
<path d="M617.661 97.773C618.035 102.291 622.014 105.631 626.52 105.257C631.04 104.882 634.381 100.905 634.007 96.401C633.633 91.883 629.654 88.5431 625.148 88.9173C620.628 89.3053 617.273 93.2689 617.661 97.773Z" fill="#E0A78F"/>
<path d="M630.319 95.4171C630.319 95.4171 626.895 94.2114 624.455 100.184" stroke="#B9635E" stroke-width="0.6612" stroke-miterlimit="10" stroke-linecap="round" stroke-linejoin="round"/>
<path d="M603.068 105.438C618.596 104.128 630.192 91.3247 628.969 76.8408C627.747 62.3568 614.167 51.6771 598.64 52.9871C583.112 54.297 571.516 67.1004 572.739 81.5844C573.962 96.0683 587.541 106.748 603.068 105.438Z" fill="#A74B22"/>
<path d="M612.004 114.681C612.004 114.681 608.746 118.228 605.585 119.296C602.424 120.363 599.083 118.187 599.041 118.159C598.999 118.131 595.034 115.651 595.034 115.651L595.797 142.661L596.254 143.077C602.23 148.496 610.119 147.914 615.151 141.677L615.886 140.763L612.004 114.681Z" fill="#E0A78F"/>
<path d="M592.192 112.311C592.192 112.311 598.057 127.639 606.126 126.807C612.767 126.114 613.377 111.313 613.377 111.313L592.192 112.311Z" fill="#DB926F"/>
<path d="M623.512 81.9049C624.302 90.7329 623.664 98.4799 622.833 104.01C622.014 109.414 618.729 113.447 613.862 116.884L612.975 117.508C607.831 121.139 600.83 121.846 595.048 119.296C589.225 116.732 584.969 113.032 583.263 107.46C580.158 97.3158 578.896 85.8962 578.896 85.8962C578.896 85.8962 575.014 62.1563 599.11 60.4379C623.207 58.7055 623.512 81.9049 623.512 81.9049Z" fill="#E0A78F"/>
<path d="M600.303 96.1653L600.594 99.6161L602.951 99.4221" stroke="#B9635E" stroke-width="0.6612" stroke-miterlimit="10" stroke-linecap="round" stroke-linejoin="round"/>
<path d="M582.903 85.1339L595.533 82.9165C595.533 82.9165 594.119 79.7152 589.017 80.6853C583.79 81.6692 582.903 85.1339 582.903 85.1339Z" fill="black"/>
<path d="M617.883 82.182L605.058 82.1127C605.058 82.1127 605.918 78.7173 611.103 78.8143C616.413 78.9113 617.883 82.182 617.883 82.182Z" fill="black"/>
<path d="M593.44 92.0355C593.537 93.1165 592.733 94.0588 591.651 94.142C590.57 94.239 589.627 93.4352 589.544 92.3542C589.447 91.2732 590.251 90.3309 591.333 90.2477C592.4 90.1646 593.343 90.9545 593.44 92.0355Z" fill="#1E0B02"/>
<path d="M612.545 90.414C612.642 91.495 611.838 92.4374 610.756 92.5206C609.675 92.6176 608.732 91.8138 608.649 90.7328C608.552 89.6518 609.356 88.7094 610.438 88.6263C611.505 88.5431 612.462 89.3469 612.545 90.414Z" fill="#1E0B02"/>
<path d="M595.048 105.021C595.048 105.021 600.705 107.516 609.176 103.829" stroke="black" stroke-width="0.6612" stroke-miterlimit="10" stroke-linecap="round" stroke-linejoin="round"/>
<path d="M623.054 76.4723C623.054 76.4723 587.741 80.7824 587.492 59.8973C587.478 59.8973 617.605 48.5471 623.054 76.4723Z" fill="#A74B22"/>
<path d="M577.911 80.2971C577.911 80.2971 589.918 74.0469 588.836 61.2969C588.836 61.2969 576.206 63.8469 577.911 80.2971Z" fill="#A74B22"/>
<path d="M62.0575 505.481L59.3817 542.456L43.4237 542.997L42.3423 497.429L62.0575 505.481Z" fill="#E8AF94"/>
<path d="M60.1167 538.257C60.1167 538.257 48.9697 545.256 43.0912 534.501L0.000488281 557.354L67.1044 556.939L60.1167 538.257Z" fill="#DA4412"/>
<path d="M67.1005 556.952L-0.00341797 557.362L0.0324608 563.224L67.1363 562.814L67.1005 556.952Z" fill="#050505"/>
<path d="M37.9745 545.685C37.7943 545.616 37.6279 545.491 37.5032 545.325C34.8966 541.916 32.2763 540.225 32.2485 540.211C31.7355 539.879 31.5969 539.213 31.9435 538.728C32.2901 538.229 32.9972 538.119 33.4963 538.423C33.6211 538.493 36.4633 540.322 39.3194 544.064C39.6799 544.549 39.569 545.214 39.0698 545.561C38.751 545.796 38.335 545.824 37.9745 545.685Z" fill="#050505"/>
<path d="M32.4985 548.429C32.3182 548.36 32.1519 548.235 32.0271 548.069C29.4206 544.66 26.8002 542.969 26.7725 542.955C26.2595 542.622 26.1208 541.957 26.4674 541.472C26.8141 540.987 27.5211 540.848 28.0203 541.167C28.145 541.237 30.9872 543.066 33.8433 546.808C34.2038 547.293 34.0929 547.958 33.5938 548.305C33.2749 548.54 32.8451 548.568 32.4985 548.429Z" fill="#050505"/>
<path d="M27.0082 551.159C26.828 551.09 26.6616 550.965 26.5368 550.799C23.9303 547.39 21.31 545.699 21.2822 545.685C20.7692 545.353 20.6306 544.687 20.9772 544.202C21.3238 543.717 22.0309 543.579 22.53 543.897C22.6548 543.967 25.497 545.796 28.3531 549.538C28.7136 550.023 28.6026 550.688 28.1035 551.035C27.7846 551.284 27.3687 551.312 27.0082 551.159Z" fill="#050505"/>
<path d="M105.98 505.481L108.67 542.456L124.628 542.997L125.695 497.429L105.98 505.481Z" fill="#E8AF94"/>
<path d="M107.933 538.257C107.933 538.257 119.08 545.256 124.959 534.501L168.036 557.354L100.932 556.939L107.933 538.257Z" fill="#DA4412"/>
<path d="M100.944 556.95L100.908 562.812L168.012 563.223L168.047 557.36L100.944 556.95Z" fill="#050505"/>
<path d="M130.062 545.685C130.243 545.616 130.409 545.491 130.534 545.325C133.14 541.916 135.761 540.225 135.788 540.211C136.301 539.879 136.44 539.213 136.093 538.728C135.747 538.229 135.04 538.119 134.541 538.423C134.416 538.493 131.574 540.322 128.718 544.064C128.357 544.549 128.468 545.214 128.967 545.561C129.286 545.796 129.702 545.824 130.062 545.685Z" fill="#050505"/>
<path d="M135.539 548.429C135.719 548.36 135.886 548.235 136.01 548.069C138.617 544.66 141.237 542.969 141.265 542.955C141.778 542.622 141.917 541.957 141.57 541.472C141.223 540.987 140.516 540.848 140.017 541.167C139.892 541.237 137.05 543.066 134.194 546.808C133.834 547.293 133.945 547.958 134.444 548.305C134.776 548.54 135.192 548.568 135.539 548.429Z" fill="#050505"/>
<path d="M141.029 551.159C141.209 551.09 141.376 550.965 141.501 550.799C144.107 547.39 146.727 545.699 146.755 545.685C147.268 545.353 147.407 544.687 147.06 544.202C146.714 543.717 146.006 543.579 145.507 543.897C145.383 543.967 142.54 545.796 139.684 549.538C139.324 550.023 139.435 550.688 139.934 551.035C140.253 551.284 140.669 551.312 141.029 551.159Z" fill="#050505"/>
<path d="M125.584 264.631C125.584 264.631 130.7 296.825 130.547 408.9L134.18 524.939H99.1306L93.7928 410.078L86.3753 307.51H72.5386V264.631H125.584Z" fill="#FFC000"/>
<path d="M43.7976 264.631C43.7976 264.631 38.6816 298.114 38.8341 410.189L35.2017 524.939H70.2648L74.2578 410.078L83.0201 307.51H96.8568V264.631H43.7976Z" fill="#FFC000"/>
<path d="M68.6704 307.51H95.5535" stroke="#494949" stroke-width="0.9528" stroke-miterlimit="10" stroke-linecap="round" stroke-linejoin="round"/>
<path d="M38.3213 246.837L23.1397 317.419L13.1157 316.906C13.1157 316.906 16.3323 273.238 20.0479 244.051C20.6441 239.422 26.6058 235.639 31.1811 236.595C35.4652 237.482 39.2225 242.554 38.3213 246.837Z" fill="#E8AF94"/>
<path d="M21.9751 312.749C21.9751 312.749 26.9109 320.482 23.8607 330.335L26.1206 339.967C26.4672 341.464 25.7463 343.03 24.4153 343.64C22.9734 344.305 21.3374 343.612 20.7135 342.088L18.4674 336.655L18.2317 338.734C17.8574 342.032 18.5229 345.358 20.1173 348.172L24.6648 356.154C25.1778 357.069 25.1917 358.219 24.6926 359.162C23.7359 360.977 21.3928 361.226 20.1866 359.619L12.9771 349.987C10.1904 346.259 9.03962 341.381 9.82989 336.6L14.1001 310.919L21.9751 312.749Z" fill="#E8AF94"/>
<path d="M20.0479 244.037L28.9488 183.71L49.6484 190.446L38.1132 247.668L20.0479 244.037Z" fill="#E8AF94"/>
<path d="M51.2569 158.668C51.2569 158.668 37.2815 160.331 30.0997 178.846C22.8764 197.458 14.0586 216.874 14.0586 216.874L45.3506 234.295L51.2569 158.668Z" fill="#881630"/>
<path d="M143.636 256.982L211.973 219.785L207.842 205.261C207.842 205.261 160.218 225.536 134.374 239.644C130.27 241.876 128.926 250.163 131.49 254.071C133.875 257.73 139.962 259.379 143.636 256.982Z" fill="#E8AF94"/>
<path d="M149.279 244.301L135.123 183.711L114.423 190.446L130.686 252.45L149.279 244.301Z" fill="#E8AF94"/>
<path d="M115.491 158.183C115.491 158.183 130.617 159.971 138.298 178.832C145.84 197.32 153.327 214.38 153.327 214.38L123.185 233.047L115.491 158.183Z" fill="#881630"/>
<path d="M122.506 161.01C117.141 157.684 108.42 156.853 108.42 156.853L84.1848 159.292L59.9498 156.853C59.9498 156.853 51.2291 157.684 45.8635 161.01L45.6694 216.805L34.8413 293.499L134.18 294.04L122.783 217.803L122.506 161.01Z" fill="#881630"/>
<path d="M51.2568 158.668L79.8176 151.17H89.6613L115.491 158.197C102.278 170.573 69.5024 180.717 52.7265 159.25L51.2568 158.668Z" fill="#E8AF94"/>
<path d="M43.6036 233.061L45.3366 215.198L43.2847 188.367" stroke="black" stroke-width="0.9528" stroke-miterlimit="10" stroke-linecap="round" stroke-linejoin="round"/>
<path d="M124.558 231.689L122.95 215.198L125.612 188.118" stroke="black" stroke-width="0.9528" stroke-miterlimit="10" stroke-linecap="round" stroke-linejoin="round"/>
<path d="M126.61 132.96C126.333 130.66 126.513 128.304 127.096 126.1C130.035 114.861 126.68 105.284 120.746 98.1193C115.38 91.6473 114.049 82.071 114.049 82.071C110.112 69.0993 96.774 60.105 84.6287 60.105C72.4835 60.105 59.1875 68.5865 55.25 81.5582C55.25 81.5582 53.4754 91.8275 48.5119 98.1332C42.772 105.423 39.2227 114.861 42.162 126.114C42.7443 128.331 42.9245 130.687 42.6472 132.974C42.4393 134.665 41.9817 136.425 41.0112 137.644H128.246C127.276 136.425 126.818 134.665 126.61 132.96Z" fill="#DA4412"/>
<path d="M69.5025 108.278C69.6412 112.99 65.9255 116.926 61.2116 117.05C56.4977 117.189 52.5602 113.475 52.4354 108.763C52.2968 104.051 56.0124 100.115 60.7263 99.9903C65.4264 99.8517 69.3639 103.566 69.5025 108.278Z" fill="#E8AF94"/>
<path d="M56.1094 107.322C56.1094 107.322 59.5062 105.672 62.7366 111.562" stroke="#C47268" stroke-width="0.6887" stroke-miterlimit="10" stroke-linecap="round" stroke-linejoin="round"/>
<path d="M109.224 117.064C113.941 117.064 117.765 113.242 117.765 108.527C117.765 103.812 113.941 99.9902 109.224 99.9902C104.507 99.9902 100.684 103.812 100.684 108.527C100.684 113.242 104.507 117.064 109.224 117.064Z" fill="#E8AF94"/>
<path d="M114.035 107.183C114.035 107.183 110.596 105.631 107.519 111.618" stroke="#C47268" stroke-width="0.6887" stroke-miterlimit="10" stroke-linecap="round" stroke-linejoin="round"/>
<path d="M110.957 98.4839C114.39 84.0764 105.489 69.615 91.0753 66.1834C76.6618 62.7519 62.1944 71.6496 58.7614 86.0572C55.3284 100.465 64.2299 114.926 78.6434 118.358C93.0569 121.789 107.524 112.891 110.957 98.4839Z" fill="#DA4412"/>
<path d="M93.3357 125.573C93.3357 125.573 89.6339 128.969 86.2649 129.8C82.8958 130.632 79.6099 128.082 79.5683 128.054C79.5267 128.026 75.6308 125.102 75.6308 125.102L74.0503 153.208L74.494 153.679C80.22 159.818 88.4554 159.915 94.2369 153.887L95.0826 153L93.3357 125.573Z" fill="#E8AF94"/>
<path d="M72.9824 121.374C72.9824 121.374 77.7241 137.797 86.1814 137.63C93.1413 137.492 95.0685 122.192 95.0685 122.192L72.9824 121.374Z" fill="#DB926F"/>
<path d="M108.157 92.5619C108.198 101.806 106.867 109.774 105.523 115.443C104.206 120.986 100.434 124.88 95.0827 128.026L94.1122 128.595C88.4555 131.921 81.1351 132.031 75.3536 128.886C69.5306 125.712 65.4406 121.513 64.165 115.567C61.8358 104.771 61.5308 92.7975 61.5308 92.7975C61.5308 92.7975 59.5898 67.8103 84.7399 68.1429C109.876 68.4617 108.157 92.5619 108.157 92.5619Z" fill="#E8AF94"/>
<path d="M82.8125 106.24V109.899H85.2804" stroke="#C47268" stroke-width="0.6887" stroke-miterlimit="10" stroke-linecap="round" stroke-linejoin="round"/>
<path d="M65.7178 92.3542L79.0138 91.1623C79.0138 91.1623 77.8214 87.7115 72.442 88.2797C66.9517 88.8341 65.7178 92.3542 65.7178 92.3542Z" fill="black"/>
<path d="M102.278 92.3542L88.9824 91.1623C88.9824 91.1623 90.1748 87.7115 95.5542 88.2797C101.058 88.8341 102.278 92.3542 102.278 92.3542Z" fill="black"/>
<path d="M76.7817 113.281H91.3117C91.3117 113.281 90.7571 117.064 83.7971 117.064C78.0573 117.064 76.7817 113.281 76.7817 113.281Z" fill="white"/>
<path d="M77.4608 101.321C77.4608 101.321 74.0224 98.5074 71 101.321" stroke="#1E0B02" stroke-width="0.9565" stroke-miterlimit="10" stroke-linecap="round" stroke-linejoin="round"/>
<path d="M96.899 101.321C96.899 101.321 94.2093 98.4381 90.6045 101.321" stroke="#1E0B02" stroke-width="0.9565" stroke-miterlimit="10" stroke-linecap="round" stroke-linejoin="round"/>
<path opacity="0.23" d="M71.014 92.1324L80.7607 105.367C80.7607 105.367 77.8214 110.98 73.1353 110.357L63.2915 97.4542C63.2915 97.4403 65.9535 91.7721 71.014 92.1324Z" fill="white"/>
<path opacity="0.23" d="M94.9857 92.1324L104.732 105.367C104.732 105.367 101.793 110.98 97.1069 110.357L87.2632 97.4542C87.277 97.4403 89.9252 91.7721 94.9857 92.1324Z" fill="white"/>
<path d="M81.5369 101.321C81.5369 106.587 77.2667 110.855 71.9982 110.855C66.7297 110.855 62.4595 106.587 62.4595 101.321C62.4595 96.0544 66.7297 91.7859 71.9982 91.7859C77.2667 91.7859 81.5369 96.0544 81.5369 101.321Z" stroke="white" stroke-width="0.4927" stroke-miterlimit="10"/>
<path d="M105.536 101.321C105.536 106.587 101.266 110.855 95.9977 110.855C90.7292 110.855 86.459 106.587 86.459 101.321C86.459 96.0544 90.7292 91.7859 95.9977 91.7859C101.266 91.7859 105.536 96.0544 105.536 101.321Z" stroke="white" stroke-width="0.4927" stroke-miterlimit="10"/>
<path d="M81.5371 101.321C81.5371 101.321 84.2545 100.323 86.4728 101.321" stroke="white" stroke-width="0.4927" stroke-miterlimit="10"/>
<path d="M59.0903 86.88C59.0903 86.88 81.5091 82.6115 86.1398 65.8841C86.1398 65.8841 62.2792 57.4303 59.0903 86.88Z" fill="#DA4412"/>
<path d="M108.157 86.88C108.157 86.88 85.7381 82.6115 81.1074 65.8841C81.0936 65.8841 104.954 57.4303 108.157 86.88Z" fill="#DA4412"/>
<path d="M394.845 530.33H369.861L328.545 552.421L399.587 551.575L394.845 530.33Z" fill="#A74B22"/>
<path d="M382.159 556.675C384.502 556.675 386.402 558.629 386.457 561.068L399.836 560.916L399.587 551.575L328.545 552.421L328.795 561.761L377.861 561.165V561.152C377.861 558.685 379.788 556.675 382.159 556.675Z" fill="#1E0B02"/>
<path d="M352.586 538.465L360.78 540.696" stroke="#FEA609" stroke-width="1.9384" stroke-miterlimit="10" stroke-linecap="round" stroke-linejoin="round"/>
<path d="M360.6 534.363L368.78 536.594" stroke="#FEA609" stroke-width="1.9384" stroke-miterlimit="10" stroke-linecap="round" stroke-linejoin="round"/>
<path d="M394.845 495.115H369.376V530.33H394.845V495.115Z" fill="#E6A9A0"/>
<path d="M439.849 530.33H464.832L506.148 552.421L435.107 551.575L439.849 530.33Z" fill="#A74B22"/>
<path d="M452.535 556.675C450.192 556.675 448.293 558.629 448.237 561.068L434.858 560.916L435.107 551.575L506.149 552.421L505.899 561.761L456.833 561.165V561.152C456.833 558.685 454.906 556.675 452.535 556.675Z" fill="#1E0B02"/>
<path d="M482.108 538.465L475.189 541.971" stroke="#FEA609" stroke-width="1.9384" stroke-miterlimit="10" stroke-linecap="round" stroke-linejoin="round"/>
<path d="M474.108 534.363L468.465 536.594" stroke="#FEA609" stroke-width="1.9384" stroke-miterlimit="10" stroke-linecap="round" stroke-linejoin="round"/>
<path d="M462.601 495.115H437.132L439.849 530.33H465.318L462.601 495.115Z" fill="#E6A9A0"/>
<path d="M453.603 229.458C455.516 249.872 470.822 520.171 470.822 520.171H431.073L413.645 280.084L406.477 280.222L401.847 520.171H363.858C363.858 520.171 361.695 269.371 364.011 230.095L453.603 229.458Z" fill="#FFC000"/>
<path d="M396.439 280.264H425.569" stroke="black" stroke-width="0.9528" stroke-miterlimit="10" stroke-linecap="round" stroke-linejoin="round"/>
<path d="M393.348 8.37065C393.348 8.37065 404.356 -6.52743 423.863 3.40925C445.256 14.3022 433.693 37.7926 433.693 37.7926L387.732 29.0894L393.348 8.37065Z" fill="#A74B22"/>
<path d="M384.155 37.9173C384.155 37.9173 372.135 14.316 393.347 8.37061L397.16 21.0236L384.155 37.9173Z" fill="#A74B22"/>
<path d="M394.346 48.8103C394.484 53.5222 390.769 57.4581 386.055 57.5828C381.341 57.7214 377.403 54.0073 377.279 49.2953C377.14 44.5834 380.856 40.6475 385.57 40.5228C390.284 40.3842 394.207 44.0983 394.346 48.8103Z" fill="#E8AF94"/>
<path d="M380.953 47.8541C380.953 47.8541 384.349 46.2049 387.58 52.0949" stroke="#C47268" stroke-width="0.6887" stroke-miterlimit="10" stroke-linecap="round" stroke-linejoin="round"/>
<path d="M425.527 49.046C425.527 53.7579 429.353 57.5829 434.067 57.5829C438.781 57.5829 442.608 53.7579 442.608 49.046C442.608 44.334 438.781 40.509 434.067 40.509C429.353 40.509 425.527 44.334 425.527 49.046Z" fill="#E8AF94"/>
<path d="M438.892 47.7156C438.892 47.7156 435.454 46.1635 432.376 52.1504" stroke="#C47268" stroke-width="0.6887" stroke-miterlimit="10" stroke-linecap="round" stroke-linejoin="round"/>
<path d="M420.896 68.7252C420.896 68.7252 416.085 72.1206 411.69 72.966C407.295 73.7975 403.039 71.2614 402.983 71.2336C402.928 71.2059 397.853 68.2817 397.853 68.2817L395.76 96.3871L396.328 96.8583C403.773 102.998 414.491 103.067 422.019 97.0385L423.114 96.1515L420.896 68.7252Z" fill="#E8AF94"/>
<path d="M395.76 65.3159C395.76 65.3159 400.543 80.9762 411.565 80.7961C420.619 80.6575 422.074 65.3159 422.074 65.3159H395.76Z" fill="#DB926F"/>
<path d="M433 34.1893C433.055 43.8349 431.71 52.1779 430.365 58.0955C429.048 63.8885 423.946 67.949 418.608 71.2336L417.638 71.8295C411.981 75.308 407.309 75.4189 401.527 72.1344C395.704 68.8221 390.283 64.4289 389.008 58.2202C386.679 46.9393 386.36 34.4249 386.36 34.4249C386.36 34.4249 383.088 8.31515 408.238 8.66162C433.402 9.00809 433 34.1893 433 34.1893Z" fill="#E8AF94"/>
<path d="M400.862 41.8395C400.862 42.962 399.947 43.8767 398.824 43.8767C397.701 43.8767 396.786 42.962 396.786 41.8395C396.786 40.7169 397.701 39.8022 398.824 39.8022C399.961 39.8022 400.862 40.7169 400.862 41.8395Z" fill="#1E0B02"/>
<path d="M420.841 41.8395C420.841 42.962 419.926 43.8767 418.803 43.8767C417.68 43.8767 416.765 42.962 416.765 41.8395C416.765 40.7169 417.68 39.8022 418.803 39.8022C419.926 39.8022 420.841 40.7169 420.841 41.8395Z" fill="#1E0B02"/>
<path d="M406.976 47.1611V50.4318H409.61" stroke="#C47268" stroke-width="0.6887" stroke-miterlimit="10" stroke-linecap="round" stroke-linejoin="round"/>
<path d="M391.254 33.247L404.55 32.0552C404.55 32.0552 403.358 28.6044 397.978 29.1726C392.474 29.7269 391.254 33.247 391.254 33.247Z" fill="black"/>
<path d="M425.527 33.247L412.231 32.0552C412.231 32.0552 413.423 28.6044 418.803 29.1726C424.307 29.7269 425.527 33.247 425.527 33.247Z" fill="black"/>
<path d="M402.415 55.0745H415.53C415.53 55.0745 414.92 59.0935 408.778 59.0935C402.65 59.0935 402.415 55.0745 402.415 55.0745Z" fill="white"/>
<path d="M387.22 46.7731C387.22 46.7731 388.204 14.8011 387.802 13.8865C387.802 13.8865 376.447 24.3636 387.22 46.7731Z" fill="#A74B22"/>
<path d="M432.057 46.5514L430.352 11.8215C430.352 11.8215 441.263 22.659 432.057 46.5514Z" fill="#A74B22"/>
<path d="M397.743 11.0593C397.743 11.0593 389.937 13.1658 390.2 20.8297C390.464 28.4935 385.279 36.0188 385.279 36.0188L382.908 28.3688C382.922 28.355 381.092 14.0944 397.743 11.0593Z" fill="#A74B22"/>
<path d="M395.774 11.6828C395.774 11.6828 401.611 8.37062 407.42 15.6603C412.37 21.8828 425.43 28.2994 433.166 22.2016C433.166 22.2016 428.245 4.57335 409.015 4.93367C389.785 5.294 395.774 11.6828 395.774 11.6828Z" fill="#A74B22"/>
<path d="M368.558 107.044C329.821 126.433 297.891 162.535 297.891 162.535L318.688 187.577L377.265 150.381L368.558 107.044Z" fill="#881630"/>
<path d="M473.873 256.497L485.533 286.196L494.544 285.239L487.709 246.823L473.873 256.497Z" fill="#E8AF94"/>
<path d="M485.103 281.525C485.103 281.525 480.486 289.854 484.271 299.86L482.552 309.977C482.288 311.543 483.134 313.123 484.548 313.664C486.073 314.26 487.737 313.442 488.292 311.82L490.274 306.041L490.649 308.176C491.245 311.571 490.773 315.063 489.304 318.071L485.103 326.635C484.631 327.605 484.687 328.797 485.255 329.74C486.365 331.569 488.805 331.666 489.942 329.92L496.791 319.484C499.439 315.438 500.326 310.31 499.189 305.418L493.117 279.1L485.103 281.525Z" fill="#E8AF94"/>
<path d="M447.059 105.894C447.059 105.894 460.701 109.331 467.966 129.801C482.524 170.836 497.622 280.763 497.622 280.763L471.557 285.669L435.024 144.837L447.059 105.894Z" fill="#881630"/>
<path d="M438.546 102.111L450.234 107.308C454.962 109.414 458.026 114.099 458.039 119.282L458.455 246.019H360.489V119.171C360.489 113.877 363.664 109.096 368.558 107.044L380.482 102.042L438.546 102.111Z" fill="#881630"/>
<path d="M410.207 89.832L438.546 102.111C438.546 102.111 409.431 128.415 380.482 102.055L410.207 89.832Z" fill="#E8AF94"/>
<path d="M380.482 102.042C380.482 102.042 390.575 113.974 409.445 113.974C428.314 113.974 438.546 102.097 438.546 102.097" stroke="white" stroke-width="1.9384" stroke-miterlimit="10"/>
<path d="M458.414 231.565L458.137 147.318" stroke="black" stroke-width="0.9528" stroke-miterlimit="10" stroke-linecap="round" stroke-linejoin="round"/>
<path d="M360.489 161.038V146.902" stroke="black" stroke-width="0.9528" stroke-miterlimit="10" stroke-linecap="round" stroke-linejoin="round"/>
<path d="M254.953 44.4032C254.953 44.4032 267.542 38.7905 272.006 49.3923C276.304 59.5923 259.237 69.3211 259.237 69.3211L254.953 44.4032Z" fill="#1E0B02"/>
<path d="M231.411 86.7278C231.55 91.4398 227.834 95.3756 223.12 95.5003C218.406 95.6389 214.469 91.9248 214.344 87.2129C214.205 82.5009 217.921 78.5651 222.635 78.4403C227.349 78.3156 231.286 82.002 231.411 86.7278Z" fill="#E8AF94"/>
<path d="M218.032 85.7577C218.032 85.7577 221.429 84.1085 224.659 89.9984" stroke="#A8523F" stroke-width="0.7482" stroke-miterlimit="10" stroke-linecap="round" stroke-linejoin="round"/>
<path d="M271.146 95.5002C275.863 95.5002 279.687 91.678 279.687 86.9632C279.687 82.2484 275.863 78.4263 271.146 78.4263C266.43 78.4263 262.606 82.2484 262.606 86.9632C262.606 91.678 266.43 95.5002 271.146 95.5002Z" fill="#E8AF94"/>
<path d="M275.957 85.6329C275.957 85.6329 272.519 84.0807 269.441 90.0677" stroke="#A8523F" stroke-width="0.7482" stroke-miterlimit="10" stroke-linecap="round" stroke-linejoin="round"/>
<path d="M257.976 106.643C257.976 106.643 253.165 110.038 248.77 110.883C244.375 111.715 240.118 109.179 240.063 109.151C240.007 109.123 234.933 106.199 234.933 106.199L232.839 134.305L233.408 134.776C240.853 140.915 251.57 140.984 259.099 134.956L260.194 134.069L257.976 106.643Z" fill="#E8AF94"/>
<path d="M232.825 103.233C232.825 103.233 237.608 118.894 248.631 118.714C257.684 118.575 259.14 103.233 259.14 103.233H232.825Z" fill="#DB926F"/>
<path d="M270.079 72.0929C270.134 81.7385 268.79 90.0814 267.445 95.9991C266.128 101.792 262.356 105.853 257.005 109.137L256.034 109.733C250.378 113.212 243.057 113.322 237.276 110.038C231.453 106.726 227.363 102.333 226.073 96.1238C223.744 84.8429 223.425 72.3285 223.425 72.3285C223.425 72.3285 220.139 46.2187 245.303 46.5652C270.467 46.9255 270.079 72.0929 270.079 72.0929Z" fill="#E8AF94"/>
<path d="M235.903 81.7939C237.029 81.7939 237.941 80.8818 237.941 79.7567C237.941 78.6316 237.029 77.7195 235.903 77.7195C234.778 77.7195 233.865 78.6316 233.865 79.7567C233.865 80.8818 234.778 81.7939 235.903 81.7939Z" fill="#1E0B02"/>
<path d="M255.882 81.7939C257.007 81.7939 257.92 80.8818 257.92 79.7567C257.92 78.6316 257.007 77.7195 255.882 77.7195C254.756 77.7195 253.844 78.6316 253.844 79.7567C253.844 80.8818 254.756 81.7939 255.882 81.7939Z" fill="#1E0B02"/>
<path d="M244.042 82.7227V88.3354H247.674" stroke="#A8523F" stroke-width="0.7482" stroke-miterlimit="10" stroke-linecap="round" stroke-linejoin="round"/>
<path d="M228.319 71.1506L241.615 69.9587C241.615 69.9587 240.423 66.5079 235.044 67.0761C229.553 67.6443 228.319 71.1506 228.319 71.1506Z" fill="black"/>
<path d="M262.606 71.1506L249.31 69.9587C249.31 69.9587 250.502 66.5079 255.882 67.0761C261.372 67.6443 262.606 71.1506 262.606 71.1506Z" fill="black"/>
<path d="M239.494 92.9919H252.61C252.61 92.9919 252 97.011 245.858 97.011C239.716 97.011 239.494 92.9919 239.494 92.9919Z" fill="#050505"/>
<path d="M224.285 84.6903C224.285 84.6903 228.014 56.4602 226.184 51.8037C226.184 51.8037 213.526 62.2809 224.285 84.6903Z" fill="#1E0B02"/>
<path d="M269.122 84.4687C269.122 84.4687 264.935 57.4997 266.1 49.7527C266.1 49.7388 278.328 60.5763 269.122 84.4687Z" fill="#1E0B02"/>
<path d="M265.227 47.8125L253.622 46.0525L252.596 44.043L246.468 44.9715L240.34 44.043L239.314 46.0525L227.71 47.8125L226.157 54.0212L226.545 61.1723C226.545 61.1723 228.375 53.065 234.767 54.6726C236.278 55.0468 238.08 55.6843 240.188 56.1139C242.156 56.5435 244.042 56.7375 245.803 56.7652C246.011 56.7652 246.232 56.7652 246.44 56.7652C246.648 56.7652 246.87 56.7652 247.078 56.7652C248.853 56.7375 250.724 56.5435 252.693 56.1139C254.801 55.6843 256.645 55.1853 258.114 54.6726C264.034 52.6076 266.225 60.7981 266.225 60.7981L266.724 54.0212L265.227 47.8125Z" fill="#1E0B02"/>
<path d="M264.991 54.8805C264.991 54.8805 257.448 61.6158 247.785 56.4326C247.785 56.4326 223.203 71.5663 216.257 55.0883C210.476 41.3544 234.489 22.7006 259.265 43.7104L264.991 54.8805Z" fill="#1E0B02"/>
<path d="M276.346 486.232L280.325 535.68L302.189 536.359L302.244 477.723L276.346 486.232Z" fill="#E8AF94"/>
<path d="M279.894 530.441C279.894 530.441 295.048 539.269 302.604 525.438L358.048 554.86L271.687 554.333L279.894 530.441Z" fill="#101010"/>
<path d="M271.712 554.305L271.666 561.857L358.028 562.385L358.074 554.833L271.712 554.305Z" fill="#050505"/>
<path d="M309.191 539.823C309.427 539.726 309.635 539.574 309.787 539.366C313.142 534.973 316.511 532.797 316.553 532.783C317.219 532.367 317.399 531.508 316.955 530.871C316.511 530.233 315.596 530.081 314.945 530.483C314.792 530.58 311.132 532.922 307.444 537.745C306.973 538.368 307.125 539.227 307.763 539.671C308.193 539.976 308.733 540.004 309.191 539.823Z" fill="#050505"/>
<path d="M316.248 543.357C316.483 543.26 316.691 543.108 316.844 542.9C320.199 538.507 323.568 536.331 323.61 536.317C324.275 535.901 324.455 535.042 324.012 534.405C323.568 533.767 322.653 533.615 322.001 534.017C321.849 534.114 318.189 536.456 314.501 541.279C314.029 541.902 314.182 542.761 314.82 543.205C315.249 543.496 315.79 543.538 316.248 543.357Z" fill="#050505"/>
<path d="M323.305 546.878C323.54 546.781 323.748 546.628 323.901 546.42C327.256 542.027 330.625 539.851 330.667 539.837C331.332 539.422 331.512 538.562 331.069 537.925C330.625 537.287 329.71 537.135 329.058 537.537C328.906 537.634 325.246 539.976 321.558 544.799C321.086 545.409 321.239 546.282 321.877 546.725C322.307 547.03 322.847 547.072 323.305 546.878Z" fill="#050505"/>
<path d="M226.295 486.232L227.626 535.68L205.762 536.359L200.396 477.723L226.295 486.232Z" fill="#E8AF94"/>
<path d="M227.668 530.441C227.668 530.441 212.515 539.269 204.959 525.438L149.515 554.86L235.876 554.333L227.668 530.441Z" fill="#101010"/>
<path d="M235.87 554.329L149.508 554.857L149.555 562.41L235.916 561.882L235.87 554.329Z" fill="#050505"/>
<path d="M198.372 539.823C198.136 539.726 197.928 539.574 197.776 539.366C194.421 534.973 191.052 532.797 191.01 532.783C190.345 532.367 190.164 531.508 190.608 530.871C191.052 530.233 191.967 530.081 192.618 530.483C192.771 530.58 196.431 532.922 200.119 537.745C200.59 538.368 200.438 539.227 199.8 539.671C199.37 539.976 198.83 540.004 198.372 539.823Z" fill="#050505"/>
<path d="M191.315 543.357C191.08 543.26 190.872 543.108 190.719 542.9C187.364 538.507 183.995 536.331 183.953 536.317C183.288 535.901 183.108 535.042 183.551 534.404C183.995 533.767 184.91 533.614 185.562 534.016C185.714 534.113 189.374 536.456 193.062 541.278C193.534 541.902 193.381 542.761 192.743 543.205C192.314 543.496 191.773 543.537 191.315 543.357Z" fill="#050505"/>
<path d="M184.258 546.877C184.023 546.78 183.815 546.628 183.662 546.42C180.307 542.027 176.938 539.851 176.896 539.837C176.231 539.421 176.051 538.562 176.494 537.925C176.938 537.287 177.853 537.135 178.505 537.537C178.657 537.634 182.317 539.976 186.005 544.799C186.477 545.408 186.324 546.281 185.686 546.725C185.257 547.03 184.716 547.071 184.258 546.877Z" fill="#050505"/>
<path d="M250.239 295.606L269.649 510.346H308.248L293.69 253.628L245.816 249.401L206.205 247.447L190.192 383.428C188.889 395.859 198.802 406.614 211.294 406.35C221.11 406.142 229.442 399.102 231.272 389.457L250.239 295.606Z" fill="#7B97FB"/>
<path d="M232.992 293.513L257.851 296.673" stroke="black" stroke-width="0.9528" stroke-miterlimit="10" stroke-linecap="round" stroke-linejoin="round"/>
<path d="M316.012 514.115H265.143L262.689 491.068H313.558L316.012 514.115Z" fill="#A1B9FC"/>
<path d="M231.287 389.457L233.657 507.048H192.938L190.192 383.428L231.287 389.457Z" fill="#7B97FB"/>
<path d="M238.579 491.068H187.71V514.115H238.579V491.068Z" fill="#A1B9FC"/>
<path d="M289.032 145.419L260.194 134.055L232.839 134.29L196.764 151.156C193.936 152.847 194.476 156.27 195.502 159.402L203.655 255.775L294.12 254.528L300.012 156.603C300.789 153.401 292.013 146.86 289.032 145.419Z" fill="#FFC000"/>
<path d="M232.825 134.291L224.77 137.991C224.77 137.991 224.687 151.503 246.579 150.796C269.039 150.076 268.984 137.353 268.984 137.353L260.18 134.041L232.825 134.291Z" fill="#E8AF94"/>
<path d="M336.615 205.635L275.792 176.601L305.961 158.668L332.968 175.382L336.615 205.635Z" fill="#E8AF94"/>
<path d="M325.329 111.008L337.1 106.781L357.938 188.88C360.864 197.666 354.847 206.896 345.627 207.769C337.96 208.49 331.069 203.057 329.988 195.435L325.329 111.008Z" fill="#E8AF94"/>
<path d="M325.329 111.008L319.714 104.813C316.789 101.584 314.654 97.7038 313.503 93.5046L311.465 86.1041C310.98 84.3441 312.2 82.5701 314.016 82.39C315.555 82.2375 317.025 83.0275 317.746 84.3856L321.544 91.606L322.598 59.7172C322.612 58.3452 323.832 57.2919 325.205 57.4859L326.12 57.6107C327.201 57.7631 328.019 58.6501 328.088 59.731L328.061 78.6343L331.097 56.9177C331.208 55.5457 332.483 54.5895 333.828 54.8528L334.494 54.9914C335.631 55.2131 336.407 56.2525 336.324 57.4028L333.828 80.0894L339.166 62.3365C339.554 60.9229 341.149 60.2438 342.438 60.9229L342.701 61.0615C343.589 61.5327 344.06 62.5166 343.88 63.5006L340.331 82.6256L343.977 71.3585C344.49 69.7509 346.514 69.252 347.734 70.4022C348.317 70.9566 348.566 71.7742 348.386 72.5503L338.93 114.833L325.329 111.008Z" fill="#E8AF94"/>
<path d="M321.544 91.592C321.544 91.592 327.7 93.0195 330.931 100.254" stroke="#A8523F" stroke-width="0.7482" stroke-miterlimit="10" stroke-linecap="round" stroke-linejoin="round"/>
<path d="M328.643 173.982L329.891 189.615" stroke="#A8523F" stroke-width="0.7482" stroke-miterlimit="10" stroke-linecap="round" stroke-linejoin="round"/>
<path d="M285.011 144.061C307.569 150.907 323.18 169.339 323.18 169.339L306.21 203.002L267.251 184.93L285.011 144.061Z" fill="#FFC000"/>
<path d="M297.462 198.941L286.398 193.814" stroke="black" stroke-width="0.9528" stroke-miterlimit="10" stroke-linecap="round" stroke-linejoin="round"/>
<path d="M179.031 182.394L165.306 231.787C163.753 239.644 173.042 248.542 180.57 250.551C188.015 252.519 186.435 246.699 188.39 239.049L207.093 192.317L179.031 182.394Z" fill="#E8AF94"/>
<path d="M166.637 237.51C169.063 247.599 200.951 269.856 200.951 269.856L219.225 270.023L186.061 224.22L166.637 237.51Z" fill="#E8AF94"/>
<path d="M224.895 274.859C224.895 274.859 229.553 277.201 234.129 276.273C236.652 275.76 237.11 272.323 234.808 271.145C228.832 268.068 216.271 260.904 211.308 259.102L202.684 256.704L194.56 264.77L200.937 269.856C200.937 269.856 202.476 277.936 205.582 280.68C205.596 280.68 219.1 282.773 224.895 274.859Z" fill="#E8AF94"/>
<path d="M191.385 231.565L186.061 224.22" stroke="#A8523F" stroke-width="0.7482" stroke-miterlimit="10" stroke-linecap="round" stroke-linejoin="round"/>
<path d="M196.75 151.157C196.75 151.157 174.012 158.751 169.326 199.122L214.33 212.523L226.85 173.483L196.75 151.157Z" fill="#FFC000"/>
<path d="M200.119 209.155L198.095 186.732" stroke="black" stroke-width="0.9528" stroke-miterlimit="10" stroke-linecap="round" stroke-linejoin="round"/>
<path d="M214.178 143.036C214.178 143.036 209.589 145.489 213.193 152.612C215.231 156.659 213.887 161.592 210.074 164.045L202.143 169.145C197.721 171.986 191.745 170.393 189.43 165.667C187.877 162.479 186.879 158.862 188.071 155.758C190.913 148.274 207.661 139.682 214.178 143.036Z" fill="#E8AF94"/>
</g>
<defs>
<clipPath id="clip0_64_397">
<rect width="693" height="567" fill="white"/>
</clipPath>
</defs>
</svg>
